<?xml version="1.0" encoding="UTF-8"?>
<svg width="400" height="32" viewBox="0 0 400 32" xmlns="http://www.w3.org/2000/svg">
  <defs>
    <!-- Dark Metal Gradient -->
    <linearGradient id="metalGrad" x1="0" y1="0" x2="0" y2="1">
      <stop offset="0%" stop-color="#333"/>
      <stop offset="50%" stop-color="#444"/>
      <stop offset="100%" stop-color="#222"/>
    </linearGradient>
  </defs>

  <!-- Ground Base -->
  <rect width="400" height="32" fill="url(#metalGrad)" stroke="black" stroke-width="2"/>

  <!-- Seams and Lines -->
  <line x1="0" y1="16" x2="400" y2="16" stroke="#222" stroke-width="2"/>
  <line x1="0" y1="8" x2="400" y2="8" stroke="#222" stroke-width="1"/>
  <line x1="0" y1="24" x2="400" y2="24" stroke="#222" stroke-width="1"/>

  <!-- Rivets -->
  <circle cx="20" cy="10" r="2" fill="black"/>
  <circle cx="60" cy="10" r="2" fill="black"/>
  <circle cx="100" cy="10" r="2" fill="black"/>
  <circle cx="140" cy="10" r="2" fill="black"/>
  <circle cx="180" cy="10" r="2" fill="black"/>
  <circle cx="220" cy="10" r="2" fill="black"/>
  <circle cx="260" cy="10" r="2" fill="black"/>
  <circle cx="300" cy="10" r="2" fill="black"/>
  <circle cx="340" cy="10" r="2" fill="black"/>
  <circle cx="380" cy="10" r="2" fill="black"/>

  <circle cx="20" cy="22" r="2" fill="black"/>
  <circle cx="60" cy="22" r="2" fill="black"/>
  <circle cx="100" cy="22" r="2" fill="black"/>
  <circle cx="140" cy="22" r="2" fill="black"/>
  <circle cx="180" cy="22" r="2" fill="black"/>
  <circle cx="220" cy="22" r="2" fill="black"/>
  <circle cx="260" cy="22" r="2" fill="black"/>
  <circle cx="300" cy="22" r="2" fill="black"/>
  <circle cx="340" cy="22" r="2" fill="black"/>
  <circle cx="380" cy="22" r="2" fill="black"/>
</svg>
