<?xml version="1.0" encoding="UTF-8"?>
<svg width="90" height="400" viewBox="0 0 90 400" xmlns="http://www.w3.org/2000/svg">
  <defs>
    <!-- Dark Steel Gradient -->
    <linearGradient id="darkSteel" x1="0" y1="0" x2="0" y2="1">
      <stop offset="0%" stop-color="#2A2A2A"/>
      <stop offset="50%" stop-color="#3D3D3D"/>
      <stop offset="100%" stop-color="#1E1E1E"/>
    </linearGradient>
    <!-- Metal Highlights -->
    <linearGradient id="metalHighlight" x1="0" y1="0" x2="1" y2="1">
      <stop offset="0%" stop-color="#555" />
      <stop offset="100%" stop-color="#222" />
    </linearGradient>
  </defs>

  <!-- Top Pipe -->
  <g id="topPipe">
    <!-- Pipe Body -->
    <rect x="10" y="0" width="70" height="350" fill="url(#darkSteel)" stroke="black" stroke-width="2"/>
    <!-- Pipe Cap -->
    <ellipse cx="45" cy="0" rx="38" ry="14" fill="url(#metalHighlight)" stroke="black" stroke-width="2"/>
    <!-- Reinforcement Bands -->
    <rect x="10" y="80" width="70" height="10" fill="#2E2E2E" stroke="black" stroke-width="1"/>
    <rect x="10" y="200" width="70" height="10" fill="#2E2E2E" stroke="black" stroke-width="1"/>
    <rect x="10" y="300" width="70" height="10" fill="#2E2E2E" stroke="black" stroke-width="1"/>
    <!-- Rivets -->
    <circle cx="18" cy="85" r="2.5" fill="black"/>
    <circle cx="72" cy="85" r="2.5" fill="black"/>
    <circle cx="18" cy="205" r="2.5" fill="black"/>
    <circle cx="72" cy="205" r="2.5" fill="black"/>
    <circle cx="18" cy="305" r="2.5" fill="black"/>
    <circle cx="72" cy="305" r="2.5" fill="black"/>
  </g>

  <!-- Bottom Pipe -->
  <g id="bottomPipe" transform="translate(0, 400) scale(1, -1)">
    <rect x="10" y="0" width="70" height="350" fill="url(#darkSteel)" stroke="black" stroke-width="2"/>
    <ellipse cx="45" cy="0" rx="38" ry="14" fill="url(#metalHighlight)" stroke="black" stroke-width="2"/>
    <rect x="10" y="80" width="70" height="10" fill="#2E2E2E" stroke="black" stroke-width="1"/>
    <rect x="10" y="200" width="70" height="10" fill="#2E2E2E" stroke="black" stroke-width="1"/>
    <rect x="10" y="300" width="70" height="10" fill="#2E2E2E" stroke="black" stroke-width="1"/>
    <circle cx="18" cy="85" r="2.5" fill="black"/>
    <circle cx="72" cy="85" r="2.5" fill="black"/>
    <circle cx="18" cy="205" r="2.5" fill="black"/>
    <circle cx="72" cy="205" r="2.5" fill="black"/>
    <circle cx="18" cy="305" r="2.5" fill="black"/>
    <circle cx="72" cy="305" r="2.5" fill="black"/>
  </g>
</svg>
