<?xml version="1.0" encoding="UTF-8"?>
<svg width="272" height="80" viewBox="0 0 272 80" xmlns="http://www.w3.org/2000/svg">
  <defs>
    <!-- Track pattern -->
    <pattern id="trackPattern" width="6" height="6" patternUnits="userSpaceOnUse">
      <circle cx="3" cy="3" r="2" fill="black"/>
    </pattern>
    <!-- Soviet Star -->
    <polygon id="redStar" points="12,2 15,10 24,10 16,15 18,24 12,18 6,24 8,15 0,10 9,10" 
             fill="#FFD700" stroke="black" stroke-width="1"/>
  </defs>

  <!-- Frame 1: Turret angled up -->
  <g id="frame1">
    <rect x="10" y="50" width="80" height="24" fill="#A00000" stroke="black" stroke-width="2"/>
    <rect x="14" y="52" width="72" height="18" fill="#CC2222"/>
    <rect x="10" y="72" width="80" height="8" fill="url(#trackPattern)"/>
    <rect x="38" y="30" width="30" height="18" fill="#D40000" stroke="black" stroke-width="2"/>
    <polygon points="68,30 100,10 104,14 72,34" fill="#D40000" stroke="black" stroke-width="2"/>
    <use href="#redStar" x="44" y="34"/>
    <circle cx="52" cy="30" r="4" fill="black"/>
  </g>

  <!-- Frame 2: Turret straight -->
  <g id="frame2" transform="translate(92,0)">
    <rect x="10" y="50" width="80" height="24" fill="#A00000" stroke="black" stroke-width="2"/>
    <rect x="14" y="52" width="72" height="18" fill="#CC2222"/>
    <rect x="10" y="72" width="80" height="8" fill="url(#trackPattern)"/>
    <rect x="36" y="34" width="30" height="18" fill="#D40000" stroke="black" stroke-width="2"/>
    <rect x="66" y="40" width="40" height="8" fill="#D40000" stroke="black" stroke-width="2"/>
    <use href="#redStar" x="42" y="36"/>
    <circle cx="50" cy="34" r="4" fill="black"/>
  </g>

  <!-- Frame 3: Turret angled down (Extended Space for Barrel) -->
  <g id="frame3" transform="translate(184,0)">
    <rect x="10" y="50" width="80" height="24" fill="#A00000" stroke="black" stroke-width="2"/>
    <rect x="14" y="52" width="72" height="18" fill="#CC2222"/>
    <rect x="10" y="72" width="80" height="8" fill="url(#trackPattern)"/>
    <rect x="34" y="38" width="30" height="18" fill="#D40000" stroke="black" stroke-width="2"/>
    <polygon points="64,44 100,64 104,60 68,38" fill="#D40000" stroke="black" stroke-width="2"/>
    <use href="#redStar" x="40" y="38"/>
    <circle cx="46" cy="38" r="4" fill="black"/>
  </g>
</svg>
