<?xml version="1.0" encoding="UTF-8"?>
<!-- A horizontal spritesheet (144x32) with 3 frames (48x32 each) for a Soviet tank -->
<svg width="144" height="32" viewBox="0 0 144 32" xmlns="http://www.w3.org/2000/svg">
  <!-- Frame 1: Turret angled up -->
  <g id="frame1">
    <!-- Tank body -->
    <rect x="2" y="14" width="44" height="12" fill="#cc0000" stroke="#900" stroke-width="1"/>
    <!-- Tracks -->
    <rect x="6" y="18" width="36" height="4" fill="#000"/>
    <!-- Turret -->
    <rect x="28" y="4" width="16" height="10" fill="#b30000" stroke="#900" stroke-width="1"/>
    <!-- Turret barrel (angled up) -->
    <polygon points="44,4 54,0 54,4" fill="#b30000" stroke="#900" stroke-width="1"/>
    <!-- Red star accent -->
    <polygon points="36,6 38,2 40,6" fill="#ffd700"/>
  </g>
  
  <!-- Frame 2: Turret straight -->
  <g id="frame2" transform="translate(48,0)">
    <rect x="2" y="14" width="44" height="12" fill="#cc0000" stroke="#900" stroke-width="1"/>
    <rect x="6" y="18" width="36" height="4" fill="#000"/>
    <rect x="26" y="6" width="16" height="10" fill="#b30000" stroke="#900" stroke-width="1"/>
    <polygon points="42,6 52,6 52,10" fill="#b30000" stroke="#900" stroke-width="1"/>
    <polygon points="34,8 36,4 38,8" fill="#ffd700"/>
  </g>
  
  <!-- Frame 3: Turret angled down -->
  <g id="frame3" transform="translate(96,0)">
    <rect x="2" y="14" width="44" height="12" fill="#cc0000" stroke="#900" stroke-width="1"/>
    <rect x="6" y="18" width="36" height="4" fill="#000"/>
    <rect x="24" y="8" width="16" height="10" fill="#b30000" stroke="#900" stroke-width="1"/>
    <polygon points="40,8 50,14 50,10" fill="#b30000" stroke="#900" stroke-width="1"/>
    <polygon points="32,10 34,6 36,10" fill="#ffd700"/>
  </g>
</svg>
